<svg width="48" height="38" viewBox="0 0 48 38" fill="none" xmlns="http://www.w3.org/2000/svg">
<path d="M40.3767 3.87008C40.3635 3.84436 40.3416 3.8242 40.3149 3.81323C37.2306 2.39252 33.9757 1.37945 30.6317 0.79936C30.6013 0.79369 30.5699 0.79778 30.542 0.81105C30.5141 0.82432 30.491 0.846093 30.4761 0.873273C30.0329 1.68087 29.6306 2.5104 29.2706 3.3587C25.666 2.80937 21.9995 2.80937 18.3949 3.3587C18.0325 2.50824 17.6238 1.6785 17.1704 0.873273C17.1548 0.846683 17.1316 0.825412 17.1039 0.812228C17.0761 0.799045 17.045 0.794561 17.0147 0.79936C13.6704 1.37823 10.4153 2.39138 7.33131 3.81331C7.30491 3.82454 7.28263 3.84373 7.26755 3.86821C1.10023 13.1145 -0.589236 22.1334 0.239557 31.0407C0.241889 31.0625 0.24857 31.0836 0.259202 31.1028C0.269835 31.122 0.284202 31.1389 0.30145 31.1524C3.89263 33.8218 7.9094 35.8594 12.1804 37.1782C12.2104 37.1873 12.2426 37.1869 12.2724 37.1771C12.3022 37.1672 12.3284 37.1485 12.3473 37.1233C13.2646 35.8703 14.0774 34.5434 14.7774 33.1562C14.787 33.1372 14.7925 33.1163 14.7935 33.095C14.7945 33.0737 14.791 33.0524 14.7832 33.0325C14.7755 33.0127 14.7636 32.9947 14.7483 32.9798C14.7331 32.9649 14.7149 32.9534 14.695 32.946C13.4132 32.4537 12.1724 31.8601 10.984 31.171C10.9624 31.1583 10.9443 31.1404 10.9312 31.119C10.9182 31.0975 10.9105 31.0732 10.9091 31.0481C10.9076 31.023 10.9123 30.9979 10.9227 30.9751C10.9332 30.9522 10.9491 30.9323 10.9691 30.9171C11.2191 30.7296 11.4648 30.5363 11.706 30.3374C11.7272 30.32 11.7528 30.3087 11.7799 30.3051C11.8071 30.3014 11.8347 30.3054 11.8597 30.3167C19.6452 33.8837 28.074 33.8837 35.7672 30.3167C35.7923 30.3047 35.8202 30.3001 35.8478 30.3035C35.8754 30.3068 35.9014 30.318 35.9229 30.3356C36.1644 30.5355 36.4107 30.7294 36.6617 30.9171C36.6818 30.9322 36.6978 30.952 36.7084 30.9747C36.7191 30.9975 36.724 31.0225 36.7227 31.0476C36.7214 31.0727 36.7139 31.0971 36.701 31.1186C36.6881 31.1401 36.6701 31.1581 36.6486 31.171C35.463 31.8659 34.221 32.4591 32.9359 32.9441C32.9159 32.9518 32.8978 32.9635 32.8827 32.9787C32.8676 32.9938 32.8558 33.012 32.8482 33.032C32.8405 33.052 32.8372 33.0734 32.8384 33.0948C32.8395 33.1162 32.8452 33.1372 32.855 33.1562C33.5667 34.5357 34.3783 35.8609 35.2833 37.1211C35.3016 37.147 35.3276 37.1664 35.3576 37.1766C35.3875 37.1868 35.4199 37.1873 35.4502 37.178C39.7288 35.8636 43.7526 33.8258 47.3483 31.1524C47.3658 31.1395 47.3803 31.1231 47.391 31.1042C47.4017 31.0852 47.4082 31.0642 47.4102 31.0425C48.4024 20.7448 45.749 11.7998 40.3767 3.87008ZM15.9401 25.6171C13.5961 25.6171 11.6648 23.4576 11.6648 20.8055C11.6648 18.1534 13.5587 15.9938 15.9401 15.9938C18.3402 15.9938 20.2528 18.1722 20.2154 20.8053C20.2154 23.4576 18.3214 25.6171 15.9401 25.6171ZM31.7474 25.6171C29.4035 25.6171 27.4721 23.4576 27.4721 20.8055C27.4721 18.1534 29.366 15.9938 31.7474 15.9938C34.1476 15.9938 36.0602 18.1722 36.0227 20.8053C36.0227 23.4576 34.1476 25.6171 31.7474 25.6171Z" fill="white"/>
</svg>
