<svg width="37" height="37" viewBox="0 0 37 37" fill="none" xmlns="http://www.w3.org/2000/svg">
<path d="M20.5506 0.896736C21.8532 0.891718 23.1559 0.90486 24.4582 0.936156L24.8045 0.948698C25.2044 0.963032 25.5989 0.98095 26.0755 1.00245C27.9749 1.09204 29.2709 1.39306 30.408 1.83564C31.5861 2.29076 32.5787 2.90713 33.5712 3.90337C34.4787 4.79857 35.1811 5.88142 35.6294 7.07665C36.0704 8.21802 36.3703 9.52066 36.4595 11.4271C36.4809 11.9038 36.4988 12.3015 36.5131 12.7029L36.5238 13.0505C36.5555 14.3571 36.5692 15.664 36.5648 16.971L36.5666 18.3076V20.6549C36.571 21.9624 36.5573 23.27 36.5256 24.5771L36.5149 24.9247C36.5006 25.3261 36.4827 25.7221 36.4613 26.2005C36.372 28.107 36.0686 29.4078 35.6294 30.5492C35.1825 31.7457 34.48 32.8294 33.5712 33.7243C32.6786 34.6351 31.5992 35.34 30.408 35.7902C29.2709 36.2328 27.9749 36.5338 26.0755 36.6234C25.5989 36.6449 25.2044 36.6628 24.8045 36.6772L24.4582 36.6879C23.1559 36.7198 21.8532 36.7335 20.5506 36.7291L19.2189 36.7309H16.8821C15.5795 36.7353 14.2768 36.7216 12.9745 36.6897L12.6282 36.6789C12.2045 36.6635 11.7808 36.6456 11.3572 36.6252C9.45786 36.5356 8.16186 36.231 7.02296 35.7902C5.83172 35.3411 4.75272 34.636 3.86152 33.7243C2.95298 32.8289 2.24996 31.7453 1.8015 30.5492C1.36057 29.4078 1.06067 28.107 0.971418 26.2005C0.951537 25.7753 0.933686 25.3501 0.917865 24.9247L0.908939 24.5771C0.876028 23.27 0.861151 21.9625 0.864311 20.6549V16.971C0.859329 15.664 0.872421 14.3571 0.903584 13.0505L0.91608 12.7029C0.930361 12.3015 0.948212 11.9038 0.969633 11.4271C1.05889 9.51887 1.35879 8.21981 1.79971 7.07665C2.24844 5.88084 2.95283 4.79828 3.8633 3.90516C4.75389 2.9927 5.83222 2.28641 7.02296 1.83564C8.16186 1.39306 9.45607 1.09204 11.3572 1.00245L12.6282 0.948698L12.9745 0.939739C14.2762 0.906722 15.5783 0.891788 16.8804 0.894944L20.5506 0.896736ZM18.7155 9.85573C17.5328 9.83894 16.3587 10.0582 15.2612 10.5009C14.1638 10.9435 13.1649 11.6007 12.3227 12.4342C11.4805 13.2677 10.8117 14.2609 10.3552 15.3561C9.89873 16.4513 9.66366 17.6266 9.66366 18.8138C9.66366 20.001 9.89873 21.1763 10.3552 22.2715C10.8117 23.3667 11.4805 24.3599 12.3227 25.1934C13.1649 26.0269 14.1638 26.6841 15.2612 27.1267C16.3587 27.5694 17.5328 27.7887 18.7155 27.7719C21.0827 27.7719 23.3529 26.828 25.0268 25.1479C26.7007 23.4678 27.641 21.189 27.641 18.8129C27.641 16.4369 26.7007 14.1581 25.0268 12.478C23.3529 10.7978 21.0827 9.85573 18.7155 9.85573ZM18.7155 13.4393C19.4268 13.4262 20.1337 13.5554 20.7948 13.8196C21.4558 14.0837 22.0578 14.4774 22.5656 14.9777C23.0733 15.4779 23.4767 16.0748 23.7521 16.7333C24.0275 17.3918 24.1693 18.0987 24.1695 18.8129C24.1696 19.5271 24.0279 20.2341 23.7528 20.8927C23.4776 21.5513 23.0744 22.1482 22.5668 22.6487C22.0592 23.1491 21.4574 23.543 20.7964 23.8074C20.1355 24.0717 19.4286 24.2012 18.7172 24.1883C17.2969 24.1883 15.9348 23.622 14.9304 22.6139C13.9261 21.6058 13.3619 20.2386 13.3619 18.8129C13.3619 17.3873 13.9261 16.02 14.9304 15.0119C15.9348 14.0039 17.2969 13.4375 18.7172 13.4375L18.7155 13.4393ZM28.0873 7.16803C27.5114 7.19116 26.9668 7.43707 26.5675 7.85424C26.1682 8.2714 25.9452 8.82747 25.9452 9.40598C25.9452 9.98449 26.1682 10.5406 26.5675 10.9577C26.9668 11.3749 27.5114 11.6208 28.0873 11.6439C28.6791 11.6439 29.2467 11.408 29.6652 10.9879C30.0836 10.5679 30.3187 9.99821 30.3187 9.40419C30.3187 8.81017 30.0836 8.24049 29.6652 7.82045C29.2467 7.40042 28.6791 7.16445 28.0873 7.16445V7.16803Z" fill="white"/>
</svg>
