<svg width="32" height="45" viewBox="0 0 32 45" fill="none" xmlns="http://www.w3.org/2000/svg">
<path d="M20.4394 1.03516L20.4177 10.6033L20.3961 20.1714L19.4006 17.9503V17.9446L18.1094 39.2451C19.379 42.0699 20.057 43.5792 20.0643 43.5849C20.0715 43.5906 20.7928 43.6248 21.6657 43.6589C24.3059 43.7614 27.5808 43.9836 30.0695 44.2285C30.6466 44.2854 31.1371 44.3139 31.1732 44.2911C31.2093 44.2683 31.2165 34.5293 31.2093 22.6432L31.1876 1.03516H20.4394Z" fill="#A7A7A7" stroke="black" stroke-width="1.04771"/>
<path d="M1 1.0057V22.6365C1 34.534 1.01443 44.2787 1.03607 44.2958C1.05771 44.3129 1.98826 44.2389 3.11358 44.142C4.2389 44.0452 5.78982 43.9199 6.56168 43.8687C7.74471 43.7889 11.2938 43.6124 11.6978 43.6067C11.8204 43.6067 11.8276 43.1226 11.842 34.4429L11.8637 25.2791L12.7221 27.1928C12.8519 27.4889 12.8952 27.5801 13.0251 27.8705L14.3163 6.57572C14.0422 5.96632 14.1864 6.28526 13.8763 5.59043C12.8231 3.23826 11.9286 1.25059 11.8925 1.15947L11.8204 1H1V1.0057Z" fill="#A7A7A7" stroke="black" stroke-width="1.04771"/>
<path d="M20.4394 1.03516L20.4177 10.6033L20.3961 20.1714L19.4006 17.9503V17.9446L18.1094 39.2451C19.379 42.0699 20.057 43.5792 20.0643 43.5849C20.0715 43.5906 20.7928 43.6248 21.6657 43.6589C24.3059 43.7614 27.5808 43.9836 30.0695 44.2285C30.6466 44.2854 31.1371 44.3139 31.1732 44.2911C31.2093 44.2683 31.2165 34.5293 31.2093 22.6432L31.1876 1.03516H20.4394Z" fill="#A7A7A7" stroke="black" stroke-width="1.04771"/>
<path d="M1 1.0057V22.6365C1 34.534 1.01443 44.2787 1.03607 44.2958C1.05771 44.3129 1.98826 44.2389 3.11358 44.142C4.2389 44.0452 5.78982 43.9199 6.56168 43.8687C7.74471 43.7889 11.2938 43.6124 11.6978 43.6067C11.8204 43.6067 11.8276 43.1226 11.842 34.4429L11.8637 25.2791L12.7221 27.1928C12.8519 27.4889 12.8952 27.5801 13.0251 27.8705L14.3163 6.57572C14.0422 5.96632 14.1864 6.28526 13.8763 5.59043C12.8231 3.23826 11.9286 1.25059 11.8925 1.15947L11.8204 1H1V1.0057Z" fill="#A7A7A7" stroke="black" stroke-width="1.04771"/>
<path d="M1 1.0057V13.1481L11.8348 35.8383C11.8348 35.32 11.8348 35.0352 11.842 34.4429L11.8637 25.2791L12.7221 27.1928C17.4831 37.8544 20.0439 43.5725 20.0583 43.5839C20.0655 43.5896 20.7869 43.6238 21.6597 43.6579C24.2999 43.7605 27.5749 43.9826 30.0636 44.2275C30.6406 44.2844 31.1312 44.3129 31.1672 44.2901C31.1889 44.273 31.2033 39.5004 31.2033 32.7628L20.4262 8.28431L20.419 10.6023L20.3973 20.1704L19.4019 17.9493C18.428 15.7794 17.7788 14.327 13.8618 5.59043C12.8086 3.23826 11.9142 1.25059 11.8781 1.15947L11.806 1H1V1.0057Z" fill="url(#paint0_radial_1349_472)"/>
<path d="M1 1.0057L11.8565 25.2962V25.2848L12.7149 27.1985C17.4831 37.8544 20.0439 43.5725 20.0583 43.5839C20.0655 43.5896 20.7869 43.6238 21.6597 43.6579C24.2999 43.7605 27.5749 43.9826 30.0636 44.2275C30.6334 44.2844 31.1312 44.3129 31.16 44.2901L20.3973 20.1648V20.1704L19.4019 17.9493C18.428 15.7794 17.7788 14.327 13.8618 5.59043C12.8087 3.23826 11.9142 1.25059 11.8781 1.15947L11.806 1H6.40298L1 1.0057Z" fill="white"/>
<defs>
<radialGradient id="paint0_radial_1349_472" cx="0" cy="0" r="1" gradientUnits="userSpaceOnUse" gradientTransform="translate(15.596 22.3979) rotate(-15.2915) scale(1.95003 58.7677)">
<stop/>
<stop offset="1" stop-opacity="0"/>
</radialGradient>
</defs>
</svg>
