<svg width="34" height="28" viewBox="0 0 34 28" fill="none" xmlns="http://www.w3.org/2000/svg">
<path d="M33.1831 3.75176C32.2494 5.12258 31.1205 6.29057 29.7966 7.25574C29.8106 7.45158 29.8175 7.74532 29.8175 8.13699C29.8175 9.95542 29.5527 11.7704 29.0232 13.5818C28.4936 15.3932 27.6888 17.1313 26.6088 18.7958C25.5287 20.4604 24.2431 21.9326 22.752 23.2125C21.2608 24.4924 19.463 25.5135 17.3587 26.2759C15.2544 27.0382 13.0037 27.4194 10.6067 27.4194C6.83003 27.4194 3.37389 26.4053 0.238281 24.377C0.726043 24.433 1.26955 24.4609 1.8688 24.4609C5.00441 24.4609 7.79858 23.4958 10.2513 21.5654C8.78804 21.5375 7.47805 21.0863 6.32136 20.2121C5.16467 19.3379 4.37032 18.2223 3.9383 16.8655C4.39819 16.9354 4.82324 16.9704 5.21345 16.9704C5.8127 16.9704 6.40498 16.8935 6.99029 16.7396C5.42946 16.4179 4.13689 15.638 3.11259 14.4001C2.08829 13.1622 1.57614 11.7249 1.57614 10.0883V10.0044C2.52379 10.5359 3.54112 10.8227 4.62813 10.8646C3.70835 10.2492 2.97671 9.44486 2.43321 8.45172C1.8897 7.45857 1.61795 6.3815 1.61795 5.22049C1.61795 3.98955 1.92454 2.84953 2.53773 1.80044C4.22399 3.88464 6.27607 5.55271 8.69397 6.80463C11.1119 8.05656 13.7005 8.75246 16.4598 8.89234C16.3483 8.36079 16.2926 7.84324 16.2926 7.33967C16.2926 5.46528 16.9511 3.86716 18.268 2.54529C19.585 1.22343 21.1772 0.5625 23.0446 0.5625C24.9957 0.5625 26.6401 1.27589 27.978 2.70266C29.497 2.40891 30.9254 1.86338 32.2633 1.06607C31.7477 2.67468 30.7582 3.91961 29.2949 4.80086C30.591 4.66098 31.887 4.31128 33.1831 3.75176Z" fill="white"/>
</svg>
