<svg width="43" height="30" viewBox="0 0 43 30" fill="none" xmlns="http://www.w3.org/2000/svg">
<path d="M41.3283 4.78083C40.8524 2.98202 39.45 1.56533 37.6695 1.08456C34.4422 0.210938 21.5008 0.210938 21.5008 0.210938C21.5008 0.210938 8.55962 0.210938 5.33219 1.08456C3.55165 1.56541 2.14932 2.98202 1.67336 4.78083C0.808594 8.04127 0.808594 14.8439 0.808594 14.8439C0.808594 14.8439 0.808594 21.6465 1.67336 24.907C2.14932 26.7058 3.55165 28.0634 5.33219 28.5442C8.55962 29.4178 21.5008 29.4178 21.5008 29.4178C21.5008 29.4178 34.4421 29.4178 37.6695 28.5442C39.45 28.0634 40.8524 26.7058 41.3283 24.907C42.1931 21.6465 42.1931 14.8439 42.1931 14.8439C42.1931 14.8439 42.1931 8.04127 41.3283 4.78083ZM17.2683 21.0202V8.66762L28.0847 14.844L17.2683 21.0202Z" fill="white"/>
</svg>
