<svg width="561" height="307" viewBox="0 0 561 307" fill="none" xmlns="http://www.w3.org/2000/svg">
<g clip-path="url(#clip0_1042_612)">
<path d="M124.733 247.381L125.159 249.4H125.142L144.815 260.999L149.787 263.887L147.067 256.887C163.294 261.669 176.514 261.938 185.301 257.798C185.301 257.798 185.287 257.798 185.287 257.805C169.99 262.324 132.055 249.547 124.733 247.381ZM64.6398 155.822L47.8091 168.62L59.8854 142.064V142.042C61.8058 146.114 63.4243 150.767 64.6542 155.822H64.6398ZM142.768 131.969L90.1996 144.784V144.728L90.2167 144.784L192.892 100.374L108.272 110.736L153.566 77.6652L105.029 96.6049L112.361 81.9045L77.6389 106.902L77.3449 106.373L126.57 0L46.5253 94.7024L46.0239 43.0673L16.6522 112.083L15.1295 91.7384L0.661572 144.676L0.683887 144.663V144.676C0.683887 144.676 2.63579 143.236 5.25582 142.446C5.46978 142.388 5.67981 142.336 5.89114 142.275C5.92133 142.275 5.94496 142.254 5.97778 142.254C6.1878 142.208 6.40045 142.16 6.61047 142.123C6.64066 142.123 6.67085 142.102 6.71023 142.102C6.92944 142.063 7.13159 142.036 7.37443 142.019V141.996C7.59758 141.976 7.82598 141.967 8.03863 141.949H8.17514C8.38516 141.929 8.62275 141.929 8.85378 141.949C8.86822 141.949 8.88659 141.949 8.93779 141.967C9.13468 141.967 9.33027 141.976 9.5416 142.019C9.57821 142.032 9.61706 142.038 9.6558 142.035C9.89076 142.064 10.0969 142.101 10.3056 142.16C10.3554 142.161 10.4046 142.171 10.4513 142.189C10.6678 142.246 10.8976 142.307 11.1391 142.388C16.0878 144.179 20.2961 142.388 20.2961 142.388C20.2961 142.388 24.9612 145.381 24.9612 147.89H24.9533V147.9C24.9533 147.9 18.8154 148.258 18.8154 145.542C18.8154 145.542 10.9724 142.761 0 146.824L23.1485 156.775C23.134 156.669 21.908 152.361 23.2469 150.863C23.6696 150.344 24.4191 150.162 25.5729 150.556C25.9982 150.708 26.308 150.671 26.4944 150.484C28.2953 148.631 19.5636 132.516 19.5636 132.516C19.5636 132.516 11.7272 131.755 4.94604 138.847C4.49449 139.317 4.02588 139.822 3.59533 140.373C4.28578 139.164 6.48052 135.662 10.1572 132.629C12.3559 130.785 15.1059 129.13 18.3757 128.198C19.2775 126.046 18.1394 127.446 19.9876 126.313C20.0034 126.313 20.0034 126.294 20.0034 126.294C20.8736 120.613 24.0923 105.981 35.192 93.4664C35.9396 92.6172 36.7167 91.7945 37.5219 90.9997C37.5219 90.9997 34.6708 96.349 34.6708 100.066C34.7562 99.9703 37.5692 95.7599 41.4454 91.905V91.8893C41.4454 91.8893 41.3981 91.9523 41.3456 92.0572C40.6184 93.6002 35.3298 104.893 35.8811 108.189C35.8995 108.219 35.9139 108.239 35.9139 108.268L46.6054 98.4706L46.5634 98.5008C46.2523 98.9259 36.5164 112.083 35.5582 116.594V116.626L51.7536 105.059L51.7378 105.078C51.6853 105.171 49.7006 107.938 48.8671 109.458C48.2698 110.547 48.1884 110.914 48.1884 111.026L48.2094 111.114L56.9306 107.374C56.9306 107.374 56.5526 107.827 55.9488 108.49L52.6974 111.787L51.8993 112.632L46.0042 118.592L45.8861 118.729L41.3981 123.288L38.5208 126.22C38.5208 126.22 36.1699 128.67 35.8824 129.939C35.6041 131.19 36.9325 131.96 36.9325 131.96H36.9141C38.116 132.627 39.0752 133.658 39.6536 134.904C39.9647 135.651 40.1446 136.467 40.1446 137.343C40.1474 138.165 39.9818 138.979 39.6581 139.734C39.3343 140.49 38.8593 141.171 38.2622 141.736C37.0409 142.924 35.4011 143.584 33.6969 143.574C32.1593 143.577 30.6708 143.034 29.4964 142.042C29.692 142.307 32.883 146.316 38.7322 143.199L45.9648 137.928L46.2799 137.682L53.758 132.217C55.5261 134.299 57.1892 136.808 58.7014 139.65C54.2568 143.871 46.6736 151.191 39.1102 159.194C34.6052 163.953 30.1015 168.986 26.2594 173.739L28.9595 161.068L29.1866 160.022C29.1866 160.022 29.1709 160.022 29.1709 160.042C29.1407 160.051 29.1223 160.051 29.1052 160.07C29.1052 160.083 29.0737 160.101 29.0737 160.101C29.0422 160.115 29.0107 160.115 28.995 160.159C28.9851 160.159 28.9759 160.164 28.9693 160.171C28.9627 160.179 28.9592 160.188 28.9595 160.198C28.928 160.215 28.8847 160.235 28.8598 160.252C28.8466 160.262 28.8296 160.306 28.785 160.314C28.7653 160.328 28.7167 160.371 28.6799 160.379C28.6576 160.419 28.6353 160.434 28.5881 160.463C28.5612 160.501 28.5217 160.529 28.4765 160.541C28.4384 160.581 28.4069 160.622 28.3636 160.646C28.3242 160.674 28.2783 160.728 28.235 160.737C28.2044 160.785 28.1636 160.826 28.1155 160.857C28.0512 160.897 28.0157 160.947 27.9514 160.985C27.9097 161.024 27.8707 161.065 27.8346 161.109C27.7742 161.16 27.7046 161.195 27.6587 161.264C27.5931 161.292 27.5589 161.34 27.4946 161.37C27.4412 161.44 27.377 161.502 27.3043 161.552C27.2649 161.598 27.1927 161.648 27.1533 161.703C27.074 161.761 27.0025 161.829 26.9407 161.905C26.879 161.956 26.8436 162.005 26.7674 162.042C26.7042 162.136 26.6251 162.218 26.5338 162.286C26.48 162.323 26.4322 162.369 26.392 162.421C26.3434 162.465 26.2909 162.515 26.2319 162.559C26.2319 162.578 26.224 162.578 26.224 162.578C26.14 162.654 26.0481 162.754 25.9654 162.843C25.897 162.896 25.8372 162.96 25.7882 163.031C25.6884 163.107 25.6123 163.196 25.5257 163.275C25.4586 163.348 25.3886 163.418 25.3156 163.485C25.2631 163.573 25.1857 163.637 25.1502 163.688C25.12 163.712 25.082 163.754 25.0505 163.785C25.0505 163.796 25.0203 163.817 24.9927 163.848C24.9402 163.901 24.893 163.947 24.8405 164.008C24.7617 164.091 24.6974 164.157 24.6278 164.241C24.6147 164.272 24.5989 164.293 24.5674 164.301C24.5399 164.331 24.5175 164.347 24.4874 164.377C24.4488 164.441 24.3995 164.497 24.3417 164.544C24.2631 164.66 24.1685 164.764 24.0607 164.853C23.9925 164.958 23.9006 165.034 23.8323 165.139C23.7523 165.247 23.6381 165.358 23.5567 165.457C23.4714 165.563 23.3887 165.647 23.3112 165.752C23.1983 165.87 23.117 165.992 23.0054 166.112C22.9358 166.203 22.8426 166.303 22.756 166.417C22.6641 166.545 22.567 166.657 22.4488 166.81C22.3688 166.884 22.3005 167.002 22.2086 167.098C22.1036 167.256 21.9881 167.391 21.8778 167.543C21.7859 167.655 21.7177 167.731 21.6652 167.834C21.5221 168.014 21.379 168.195 21.2412 168.378C21.1966 168.448 21.1231 168.532 21.0837 168.601C20.8868 168.873 20.6781 169.149 20.4864 169.435L20.4628 169.465C20.2738 169.742 20.0756 170.014 19.8957 170.292C19.8464 170.382 19.792 170.47 19.733 170.554C19.6017 170.764 19.4521 170.975 19.309 171.2C19.2315 171.305 19.1803 171.41 19.0937 171.517C18.969 171.727 18.8404 171.916 18.7025 172.127L18.4899 172.487C18.3757 172.699 18.2352 172.915 18.0987 173.125C18.0383 173.253 17.9543 173.378 17.8887 173.513C17.7574 173.726 17.6419 173.949 17.5002 174.161C17.4319 174.273 17.3505 174.425 17.277 174.555C17.1457 174.803 17.0184 175.014 16.8898 175.241C16.8294 175.37 16.7519 175.511 16.6876 175.656C16.0695 176.793 15.4791 177.945 14.9169 179.11V179.13L11.9411 179.631C12.4894 178.192 13.0986 176.776 13.767 175.388L8.9076 182.22L13.767 181.745C9.60986 191.284 6.56453 203.761 6.56453 221.54L10.5182 219.039C14.002 238.878 30.3654 247.599 30.3654 247.599L30.3431 247.474C39.3491 253.372 50.3241 257.496 62.4188 259.131C64.0964 259.343 65.4563 259.466 65.766 259.498C65.7713 259.498 65.7713 259.498 65.7713 259.489C65.9918 259.515 66.19 259.554 66.4014 259.554C72.7327 260.106 79.1067 259.921 85.3953 259.003C85.3772 259.236 85.3672 259.468 85.3651 259.701C85.3651 263.631 87.548 266.865 90.3308 267.132C84.6156 276.849 79.982 289.762 79.9675 289.822C79.7483 290.414 79.2955 291.514 78.8347 291.843C77.4223 292.159 77.3055 292.231 75.7513 292.716L75.7736 292.697C75.2525 292.185 70.7331 291.34 66.1375 293.067C66.1454 293.088 66.1454 293.088 66.1756 293.112C63.5661 294.253 61.0366 296.337 59.279 299.79C61.1482 298.284 64.6385 295.828 67.4712 296.169C64.1108 298.085 58.3063 301.739 57.6408 307C57.6408 307 77.8122 292.856 87.7607 295.464C87.7607 295.464 86.3089 297.108 89.7336 303.219L91.2956 297.537C93.0887 292.02 86.179 291.208 83.2767 291.093C83.2938 291.049 83.2938 291.03 83.2938 291.024C83.2938 291.024 83.6127 290.139 84.1798 288.677C85.8862 284.261 89.8767 274.498 94.2346 267.529C94.3213 267.381 94.3738 267.225 94.4184 267.082L93.602 265.957C93.6098 265.957 94.1926 265.322 94.5103 264.855C95.0839 263.941 95.8846 262.388 95.9017 260.336C95.9017 258.726 95.5066 256.694 94.3567 254.171L96.9426 252.974C97.087 253.302 97.2209 253.609 97.3587 253.903C97.3968 254.016 97.4362 254.116 97.4729 254.202C97.5464 254.412 97.6304 254.624 97.7053 254.836C97.742 254.932 97.784 255.046 97.8195 255.154C97.8982 255.385 97.9573 255.595 98.0321 255.806C98.0452 255.871 98.0925 255.958 98.1069 256.034L112.866 251.576L109.594 248.882H109.57L109.431 248.736L109.352 248.679L53.5151 197.848C53.5283 197.848 53.5453 197.874 53.5453 197.874L53.5296 197.848C69.0529 205.395 87.1648 214.169 117.879 228.395C148.14 242.336 167.3 250.458 177.184 254.507C177.271 254.561 177.358 254.593 177.426 254.625H177.443C178.88 255.213 180.11 255.709 181.153 256.13C183.271 256.96 185.248 257.727 185.357 257.774C185.521 257.681 185.727 257.628 185.895 257.539L73 180.147L142.768 131.969ZM35.0659 140.591C34.612 140.784 34.1221 140.879 33.6286 140.87C32.0731 140.87 30.6095 139.925 29.9703 138.382C29.9178 138.256 29.8443 138.107 29.8219 137.947L28.6576 138.333C29.6342 141.174 32.5719 142.728 35.2182 141.812C35.8606 141.59 36.4479 141.233 36.9404 140.765C38.3974 139.397 38.9894 137.17 38.2622 135.055L35.6041 135.962C35.7695 136.355 35.8811 136.775 35.8811 137.229C35.8874 137.603 35.8136 137.975 35.6645 138.318L36.8748 139.058C36.6608 139.377 36.4022 139.692 36.0951 139.956C35.7946 140.229 35.4456 140.445 35.0659 140.591ZM51.9964 273.544C56.441 268.768 61.6601 263.375 64.775 260.834C63.5157 260.713 62.2603 260.556 61.0103 260.361C57.7629 263.324 53.6202 267.65 49.9028 271.615C45.1943 276.693 41.3181 281.127 41.3181 281.148C41.2577 281.188 41.2354 281.264 41.171 281.319C38.0955 282.165 32.883 283.601 29.4058 284.547C24.259 285.973 19.6398 285.621 19.6398 288.987C19.6398 288.987 14.3144 291.843 15.5614 296.101C15.5614 296.101 26.2463 287.566 35.3889 286.12C35.3889 286.12 29.8075 289.754 30.3116 294.674C30.3116 294.674 37.8396 283.416 46.6382 290.245C46.6382 290.245 42.7147 284.923 44.3463 281.995C46.8599 279.145 49.4101 276.327 51.9964 273.544Z" fill="#DC0D15"/>
<path d="M28.6497 138.333L29.8219 137.948C29.8456 138.107 29.9204 138.258 29.9729 138.383C30.2665 139.114 30.7712 139.741 31.4227 140.185C32.0742 140.628 32.843 140.868 33.6312 140.873C34.1222 140.873 34.6065 140.798 35.0673 140.593C35.8162 140.284 36.4489 139.747 36.8761 139.058L35.6671 138.334C35.8157 137.986 35.889 137.61 35.8824 137.232C35.8757 136.795 35.782 136.364 35.6068 135.963L38.2635 135.058C39.2336 137.885 37.8698 140.91 35.2117 141.824C32.5588 142.73 29.6172 141.19 28.6484 138.334M58.7027 139.651C57.1919 136.808 55.5274 134.301 53.7593 132.22L38.7322 143.219C32.6691 146.42 29.4649 142.037 29.4649 142.037C30.6477 143.038 32.1494 143.584 33.6995 143.577C37.2646 143.577 40.1301 140.767 40.1472 137.345C40.15 136.511 39.9778 135.687 39.6418 134.924C39.0746 133.668 38.1134 132.631 36.9036 131.969L36.9338 131.963C36.9338 131.963 35.6068 131.189 35.8824 129.941C36.1712 128.672 38.5208 126.222 38.5208 126.222L38.5064 126.23L45.8887 118.731L46.0042 118.594L52.6987 111.787L55.9488 108.49C56.5526 107.829 56.9175 107.394 56.9175 107.394L48.1884 111.115C48.1884 111.115 48.0217 111.021 48.8684 109.462C49.715 107.913 51.7562 105.06 51.7562 105.06L35.5424 116.627C36.4797 112.088 46.608 98.4932 46.608 98.4932L35.9152 108.277C35.1933 104.866 41.4467 91.9079 41.4467 91.9079C37.5114 95.81 34.6735 100.09 34.6735 100.09C34.6735 96.3506 37.5114 91 37.5114 91C24.5189 103.991 20.9104 120.249 20.006 126.295C18.121 127.472 19.2801 126.039 18.3783 128.2C9.65843 130.662 4.70845 138.438 3.58089 140.373C10.6639 131.645 19.5663 132.518 19.5663 132.518C19.5663 132.518 30.2013 152.162 25.5742 150.577C20.9104 148.961 23.1485 156.777 23.1485 156.777L14.4391 153.024C15.8764 155.865 18.7052 162.551 17.0788 169.509C15.287 172.227 13.5123 175.544 11.9411 179.633L14.9182 179.134C15.4997 177.888 16.0825 176.753 16.6548 175.665C16.7388 175.526 16.8307 175.39 16.8911 175.253C17.0105 175.023 17.1405 174.803 17.277 174.576L17.5028 174.163C17.6327 173.95 17.7351 173.739 17.8729 173.529C17.9556 173.382 18.041 173.256 18.1013 173.128C18.2379 172.916 18.3507 172.701 18.4925 172.504C18.5621 172.372 18.6303 172.259 18.7052 172.153C18.8325 171.943 18.9703 171.73 19.0963 171.525C19.158 171.413 19.2158 171.305 19.3103 171.201C19.4284 170.989 19.5807 170.778 19.733 170.568C19.7933 170.468 19.8327 170.375 19.8984 170.295C20.0782 170.015 20.2764 169.744 20.4654 169.48C20.4654 169.467 20.489 169.447 20.489 169.438C20.6807 169.149 20.875 168.888 21.06 168.621C21.1244 168.555 21.1847 168.466 21.2412 168.39C21.379 168.197 21.5077 168.028 21.6534 167.836C21.7189 167.737 21.7946 167.646 21.8791 167.563C21.9763 167.411 22.0892 167.257 22.2034 167.099C22.3018 167.004 22.3688 166.911 22.437 166.81C22.5433 166.675 22.6497 166.547 22.756 166.418C22.8387 166.326 22.9384 166.23 23.0054 166.125C23.1183 165.995 23.2023 165.882 23.2994 165.764C23.3913 165.672 23.4596 165.573 23.5396 165.479C23.6335 165.366 23.7321 165.256 23.835 165.15C23.9032 165.054 23.9951 164.966 24.0607 164.877C24.1605 164.757 24.259 164.667 24.3259 164.561C24.4191 164.486 24.4874 164.377 24.5701 164.303C24.6606 164.209 24.742 164.121 24.8431 164.026C24.91 163.926 24.977 163.873 25.0518 163.786C25.1516 163.691 25.2264 163.608 25.3156 163.502C25.3937 163.435 25.4641 163.359 25.5257 163.277C25.5965 163.198 25.6897 163.11 25.7882 163.034C25.8394 162.973 25.9011 162.91 25.9667 162.845C26.0481 162.756 26.14 162.656 26.2253 162.581C26.2936 162.535 26.3316 162.467 26.392 162.43C26.5351 162.286 26.648 162.169 26.7687 162.044C26.8435 162.005 26.8816 161.957 26.9433 161.908C27.0041 161.83 27.0758 161.762 27.156 161.705C27.194 161.652 27.2675 161.6 27.3043 161.554C27.3769 161.504 27.4411 161.443 27.4946 161.373C27.5603 161.341 27.5944 161.294 27.66 161.265C27.706 161.2 27.7755 161.16 27.8346 161.112C27.8708 161.067 27.9107 161.026 27.954 160.988C28.0171 160.949 28.0525 160.899 28.1155 160.86C28.1653 160.83 28.2068 160.788 28.2363 160.738C28.2809 160.731 28.3268 160.676 28.3649 160.647C28.4082 160.624 28.4384 160.584 28.4791 160.542C28.5382 160.525 28.5618 160.495 28.5894 160.466C28.6353 160.436 28.6589 160.42 28.6813 160.383C28.7193 160.373 28.7653 160.331 28.7863 160.315C28.8296 160.307 28.848 160.267 28.8624 160.255C28.886 160.236 28.9307 160.217 28.9595 160.201C28.9594 160.196 28.9602 160.19 28.9621 160.186C28.964 160.181 28.9669 160.176 28.9706 160.172C28.9743 160.169 28.9787 160.166 28.9835 160.163C28.9884 160.161 28.9936 160.16 28.9989 160.16C29.012 160.118 29.0422 160.118 29.0764 160.103C29.0764 160.103 29.1052 160.084 29.1052 160.072C29.1249 160.054 29.142 160.054 29.1709 160.042C29.1709 160.024 29.1879 160.024 29.1879 160.024L28.9595 161.068L26.2607 173.739C36.4941 161.068 51.5947 146.373 58.7027 139.651ZM60.6152 260.296C63.2812 260.72 65.7162 260.943 65.7162 260.943L65.8369 259.532C65.8369 259.532 63.4545 259.322 60.8489 258.9L60.6152 260.296ZM94.358 254.173C95.5066 256.696 95.9017 258.727 95.9017 260.338C95.8859 262.389 95.0852 263.942 94.5103 264.858C94.194 265.324 93.6124 265.96 93.6033 265.96L95.2808 268.259C95.4646 268.143 98.7423 265.669 98.7423 260.338C98.7423 258.264 98.2461 255.809 96.9374 252.977L94.358 254.173ZM185.389 257.777C185.389 257.777 147.575 243.597 53.5151 197.849L109.572 248.885H109.598C114.624 246.799 118.152 245.32 125.142 249.403L124.734 247.383C132.044 249.55 170.121 262.389 185.389 257.777ZM59.888 142.064L47.8117 168.621L64.6398 155.823C63.4243 150.77 61.7835 146.134 59.888 142.064ZM18.8167 145.545C18.8167 148.261 24.9547 147.902 24.9547 147.902C24.9547 145.406 20.2987 142.402 20.2987 142.402C20.2987 142.402 16.0891 144.179 11.1155 142.402C9.12024 141.68 7.03445 141.916 5.25714 142.459C2.89963 144.03 0 146.844 0 146.844C10.9737 142.761 18.8167 145.545 18.8167 145.545Z" fill="#1D1D1B"/>
<path d="M449.045 165.756L449.202 165.609L454.947 159.748L455.795 158.86H431.291V201.168H449.189L449.346 201.026L454.947 195.164L455.782 194.299H438.547V181.163H443.847L443.99 181.005L449.805 175.164L450.676 174.277H438.547V165.756H449.045ZM404.447 163.375L404.22 163.539V186.078C404.22 189.486 403.856 191.877 403.153 193.209C402.525 194.459 401.423 195.043 399.766 195.043C398.559 195.043 397.249 194.584 395.835 193.634L395.375 193.332L395.11 193.794L392.028 199.112L391.787 199.555L392.207 199.818C394.544 201.208 397.084 201.934 399.768 201.934C403.36 201.934 406.272 200.625 408.451 198.09C409.561 196.801 410.347 195.207 410.833 193.353C411.279 191.743 411.52 189.363 411.52 186.099V158.398L410.687 158.983L404.447 163.375ZM493.704 159.024L478.514 174.594V158.398L477.703 158.983L471.473 163.357L471.258 163.514V201.651L472.081 201.089L478.307 196.699L478.514 196.537V183.784L479.253 183.056L493.767 200.985L494.051 201.35L494.452 201.088L499.797 197.479L500.257 197.159L499.897 196.713L484.44 178.099L502.775 159.748L503.643 158.86H493.872L493.704 159.024ZM370.463 190.716C367.575 193.594 364.011 195.043 359.837 195.043C356.028 195.043 352.583 193.613 349.664 190.772C346.701 187.955 345.206 184.306 345.206 179.898C345.206 175.728 346.655 172.158 349.499 169.317C352.343 166.435 355.891 164.965 360.021 164.965C364.177 164.965 367.697 166.435 370.503 169.317C373.344 172.18 374.77 175.786 374.77 180.015C374.77 184.184 373.323 187.793 370.463 190.716ZM360.102 158.094C354.035 158.094 348.758 160.256 344.446 164.505C340.091 168.756 337.888 173.912 337.888 179.832C337.888 186.562 340.307 192.103 345.071 196.272C349.378 200.022 354.336 201.934 359.778 201.934C365.904 201.934 371.228 199.777 375.56 195.548C379.898 191.338 382.089 186.141 382.089 180.079C382.089 174.071 379.914 168.833 375.604 164.561C371.312 160.271 366.109 158.094 360.102 158.094ZM513.542 165.756H523.026V201.651L523.837 201.089L530.067 196.699L530.29 196.537V165.756H539.762V158.86H513.542V165.756ZM160.693 164.965C163.371 164.965 166.015 165.731 168.591 167.243L169.038 167.504L169.279 167.062L172.305 161.845L172.567 161.404L172.122 161.139C168.591 159.108 164.882 158.078 161.13 158.078C154.2 158.078 148.482 160.673 144.128 165.811C140.584 170.023 138.781 174.858 138.781 180.218C138.781 186.179 140.947 191.381 145.154 195.608C149.424 199.799 154.624 201.934 160.656 201.934C164.638 201.934 168.492 200.884 172.122 198.834L172.381 198.67V198.25L172.326 198.13L169.279 192.869L169.014 192.41L168.555 192.711C167.707 193.255 166.877 193.695 166.113 194.017C164.638 194.704 162.831 195.044 160.708 195.044C156.642 195.044 153.157 193.594 150.331 190.732C147.527 187.876 146.098 184.306 146.098 180.135C146.098 175.909 147.527 172.279 150.331 169.38C153.136 166.435 156.619 164.965 160.693 164.965ZM208.316 190.595C206.914 191.872 205.258 192.839 203.456 193.432C201.69 194.017 199.389 194.299 196.671 194.299H194.372V165.756H196.671C201.809 165.756 205.761 166.983 208.354 169.38C211.277 172.101 212.729 175.662 212.729 180.015C212.729 184.346 211.265 187.891 208.315 190.595M206.283 160.129C203.827 159.289 200.454 158.86 196.284 158.86H187.117V201.168H196.186C200.397 201.168 203.697 200.786 206.041 200C208.522 199.215 210.954 197.805 213.236 195.812C217.749 191.798 220.069 186.504 220.069 180.015C220.069 173.588 217.848 168.291 213.502 164.324C211.34 162.367 208.921 160.959 206.283 160.129ZM306.936 178.266V165.146H309.169C314.9 165.146 317.777 167.267 317.777 171.493C317.777 176.006 314.816 178.266 308.929 178.266H306.936ZM315.032 183.404C317.536 182.695 319.616 181.345 321.204 179.349C322.954 177.174 323.825 174.514 323.825 171.493C323.825 167.626 322.412 164.44 319.631 162.069C317.137 159.953 313.04 158.86 307.477 158.86H299.68V201.651L300.462 201.089L306.712 196.699L306.935 196.537V184.285H307.281L318.924 200.971L319.208 201.391L319.631 201.089L324.636 197.479L325.056 197.178L324.757 196.76L315.032 183.404ZM268.439 178.266H266.446V165.145H268.682C274.401 165.145 277.291 167.267 277.291 171.493C277.291 176.006 274.326 178.266 268.439 178.266ZM274.751 159.605C272.953 159.125 270.278 158.86 266.785 158.86H259.211V201.651L260.01 201.089L266.242 196.699L266.466 196.537V184.43H268.841C273.238 184.43 276.808 183.259 279.42 180.98C282.068 178.666 283.398 175.523 283.398 171.613C283.398 167.949 282.142 164.886 279.687 162.468C278.273 161.079 276.623 160.112 274.751 159.605Z" fill="white"/>
<path d="M554.234 162.302H551.962V165.298H554.233C554.964 165.298 555.766 164.709 555.766 163.837C555.766 162.892 554.965 162.302 554.234 162.302ZM555.629 169.728L553.429 166.382H551.962V169.728H550.776V161.253H554.234C555.659 161.253 556.99 162.261 556.99 163.837C556.99 165.717 555.31 166.345 554.827 166.345L557.097 169.728H555.629ZM553.606 159.191C552.779 159.184 551.958 159.342 551.192 159.656C550.426 159.969 549.73 160.432 549.145 161.017C548.559 161.602 548.096 162.297 547.782 163.063C547.468 163.828 547.309 164.648 547.315 165.476C547.315 166.301 547.478 167.118 547.794 167.88C548.111 168.643 548.574 169.335 549.159 169.918C549.743 170.501 550.437 170.964 551.2 171.279C551.963 171.594 552.781 171.755 553.606 171.754C554.431 171.754 555.248 171.592 556.01 171.277C556.772 170.962 557.465 170.499 558.048 169.916C558.631 169.333 559.093 168.64 559.408 167.878C559.723 167.117 559.885 166.3 559.884 165.476C559.89 164.649 559.733 163.83 559.42 163.065C559.107 162.3 558.645 161.605 558.061 161.02C557.477 160.435 556.782 159.972 556.018 159.658C555.253 159.344 554.433 159.185 553.606 159.191ZM553.606 172.872C551.644 172.87 549.763 172.09 548.375 170.704C546.987 169.317 546.206 167.437 546.203 165.476C546.201 164.503 546.391 163.54 546.762 162.641C547.133 161.743 547.679 160.926 548.367 160.239C549.055 159.551 549.872 159.007 550.771 158.636C551.67 158.265 552.634 158.076 553.606 158.078C557.724 158.078 561.001 161.358 561.001 165.476C561.003 166.447 560.813 167.41 560.443 168.308C560.072 169.206 559.528 170.022 558.841 170.709C558.154 171.396 557.338 171.941 556.439 172.312C555.541 172.683 554.578 172.873 553.606 172.872Z" fill="#1D1D1B"/>
</g>
<defs>
<clipPath id="clip0_1042_612">
<rect width="561" height="307" fill="white"/>
</clipPath>
</defs>
</svg>
