<svg width="118" height="38" viewBox="0 0 118 38" fill="none" xmlns="http://www.w3.org/2000/svg">
<g filter="url(#filter0_d_863_895)">
<path d="M77.8278 10.7559V15.5263L79.6351 10.7563L77.8278 10.7559ZM50.7619 5.79776H51.8719V1.02039L53.9427 1.02079V0.000415953L48.6907 0V1.02079H50.7619V5.79776ZM55.4187 0.355848V5.83553H56.5293V3.23216L59.4769 3.53968V7.01068L59.7761 6.81449C59.9808 6.67005 60.1593 6.49233 60.3041 6.28885C60.4421 6.10668 60.5382 5.89677 60.5857 5.67387L60.5869 5.66453L60.5873 5.66045L60.5881 5.65763V0.0386004H59.4777V2.51319L56.5291 2.20651L56.5293 0.0381845H54.9191C55.1166 0.0861492 55.2924 0.197912 55.4187 0.355848ZM21.9939 26.9116L23.5732 24.5961L23.5663 10.7559L19.3595 10.7543C19.5756 10.7843 19.7823 10.8616 19.9645 10.9805C20.2545 11.1301 20.4872 11.3695 20.6273 11.6621V23.1146L19.4628 22.6089L19.2603 22.5191C19.2485 22.5143 19.2403 22.5106 19.2181 22.5025L18.7861 22.3148C18.0454 21.9687 16.5632 21.0771 16.0148 19.7265C15.7138 19.0176 15.5198 18.2687 15.4393 17.5037L15.4366 10.7555H12.4996V10.7563H12.4889V16.8311C12.4868 16.9017 12.4848 17.0001 12.4848 17.1097C12.4848 17.2031 12.486 17.3047 12.4897 17.4168V23.1012L11.3223 22.5947L11.0948 22.4935L11.0944 22.4968L10.6464 22.3014C9.90574 21.9553 8.42275 21.0633 7.87451 19.7127C7.57371 19.0036 7.37974 18.2545 7.29881 17.4895L7.29656 10.7413H4.35987L4.35414 16.6978C4.34881 16.7982 4.3443 16.9367 4.3443 17.0963C4.32813 18.5081 4.66991 19.9013 5.33829 21.1482C6.32452 22.855 7.86559 24.18 9.70981 24.9068L13.8543 26.8974L15.4289 24.5855V23.4855L15.5606 23.5903C16.2527 24.1445 17.0244 24.5933 17.8501 24.9218L21.9939 26.9116ZM65.9036 4.85779H65.2634C65.0953 4.83464 64.1001 4.58767 63.8185 4.05758C63.6487 3.77272 63.5354 3.45839 63.4844 3.13144H65.1457V2.11065H63.4869V0.8839L65.8827 0.884316V0.0767849L61.8567 0.0771801C62.0552 0.125894 62.2316 0.238823 62.358 0.398088C62.3601 0.400126 62.3613 0.401748 62.3634 0.403765V2.90233H62.3613L62.3634 2.9332V2.973H62.365L62.3736 3.12898C62.4109 3.69728 62.6049 4.24454 62.9343 4.71117C63.6045 5.59789 64.6829 5.814 65.001 5.86477L65.0785 5.87737L65.0851 5.87818L65.0879 5.8786H65.9036V4.85779ZM31.0899 26.8166V10.7555L26.8171 10.7543C27.1124 10.8071 27.3893 10.933 27.6224 11.1201C27.8555 11.3073 28.0371 11.5498 28.1505 11.825V24.5327L31.0899 26.8166ZM92.8824 24.2451C92.3939 24.2085 89.6184 23.4989 88.7888 21.9696H88.788C88.3027 21.1193 87.9833 20.1861 87.8465 19.2187L87.8334 19.1286H92.484V16.4367H87.8518V13.0197L94.5454 13.0205V10.7563L83.4979 10.7543C83.8217 10.811 84.1227 10.9571 84.3664 11.1759C84.6101 11.3946 84.7866 11.6771 84.8755 11.9907V18.6456H84.8752L84.8755 18.6549V18.6866H84.8772L84.9035 19.1952C84.9592 19.9487 85.2014 21.8908 86.4541 23.572C88.3039 26.02 91.2941 26.6224 92.1754 26.7634C92.1754 26.7634 92.3364 26.7902 92.3902 26.7979L92.4082 26.8007H94.6027V24.2459C94.6027 24.2459 93.3116 24.2776 92.8824 24.2451ZM113.576 26.1313C112.613 25.4426 111.69 24.7023 110.809 23.9136L110.702 23.8194C109.775 22.9952 108.909 22.1621 108.13 21.4114C107.694 20.9942 107.154 20.3914 106.634 19.8219C106.298 19.4547 105.973 19.1034 105.676 18.8142L105.614 18.7549L107.239 17.3193C107.812 16.896 108.321 16.3937 108.75 15.8277C109.266 15.0779 109.416 14.1193 109.42 13.1289C109.425 12.1812 109.428 11.273 109.428 11.2697L109.429 10.7575L97.1572 10.7543C97.3732 10.7844 97.5797 10.8617 97.7618 10.9805C98.0323 11.1203 98.2538 11.338 98.3971 11.6049V17.2702H98.3959L98.3971 26.7873H101.336V19.9596H102.699L102.716 19.969C103.235 20.3058 103.706 20.7107 104.116 21.1726C104.738 21.8119 105.447 22.5971 106.217 23.3295C107.173 24.239 108.244 25.2566 109.407 26.2329C110.569 27.231 111.823 28.1175 113.153 28.8805L113.835 29.2567V26.3385L113.576 26.1313ZM103.186 17.2474L103.162 17.2698H102.247V17.269H101.336V13.0408L106.51 13.0457V13.6871C106.508 13.7068 106.504 13.7263 106.498 13.7455C106.474 13.8387 106.443 13.93 106.404 14.0185C106.393 14.0465 106.379 14.077 106.365 14.103C106.354 14.129 106.341 14.1469 106.335 14.1595C106.312 14.2037 106.289 14.2492 106.257 14.2988C106.199 14.3902 105.855 14.7367 105.528 15.0633L103.186 17.2474ZM43.4123 12.1825L42.2771 10.8578L42.2183 10.7563H39.4294L42.4015 16.2177V13.4458H48.1857V10.7563H42.862L43.4123 12.1825ZM42.6622 27.8585C42.3191 27.5173 41.9523 27.1257 41.9558 27.0148C41.9621 26.8068 41.3676 25.6051 41.3676 25.6051L42.0277 26.3523L42.2841 26.7877H42.4015V19.7858L39.1416 10.7563L33.6763 10.7559V13.4462H39.4616L39.4612 26.7877H41.3528L42.2138 28.1185L43.4123 29.7908L42.6622 27.8585ZM71.2281 18.3162L71.4384 17.011L69.4316 16.8018V10.7555L65.1777 10.7543C65.4639 10.8056 65.7332 10.9253 65.9621 11.1031C66.1911 11.2808 66.3729 11.5112 66.4918 11.7742V26.7873H66.9677L67.2128 26.4153L67.9982 24.5965L67.7178 26.6797L67.6998 26.743L69.432 25.0271V19.5075L76.0583 20.1977L77.0441 17.5951L71.9315 17.0626L71.2281 18.3162ZM77.8274 24.8077V30L78.5345 29.5361C79.0986 29.1378 79.591 28.6481 79.9908 28.0876C80.3684 27.5894 80.6315 27.0154 80.7619 26.4059L80.7656 26.3783L80.7664 26.371L80.7668 26.3702V10.7563H79.7999L77.3102 20.3281L77.8274 20.3817V23.4559L79.1288 21.0158L78.5173 23.1719L77.8274 24.8077ZM58.605 13.4466H62.5843V10.7559L58.3503 10.7555L58.5864 12.5363L58.605 13.4466ZM62.0158 25.3106L62.1601 24.5839L62.1433 24.1098H59.8466C59.3732 24.0823 58.9067 23.9841 58.4628 23.8186L58.9293 26.7593C58.9371 26.7605 58.9463 26.7621 58.9536 26.7634L59.3531 26.7979L61.9916 26.8019L62.1207 26.8011H63.2877V24.1103H62.763L62.0158 25.3106ZM55.7528 21.8335C54.8662 20.2887 54.7891 19.1009 54.7803 18.9007V15.2227C54.7801 16.316 54.7797 17.8223 54.7779 17.8121L54.7785 13.4462L57.6629 13.4466L57.7506 12.691L57.9668 10.7555L50.5865 10.7543C50.8024 10.7845 51.0088 10.8618 51.1909 10.9805L51.1936 10.9817C51.3907 11.1209 51.5723 11.2804 51.7356 11.4574C51.7745 11.5133 51.8092 11.572 51.8395 11.6329V17.284L51.8982 19.5197L51.9022 19.5547C51.9995 20.4378 52.2298 21.3016 52.5856 22.117C52.5856 22.117 52.886 22.7409 52.9231 22.8108C53.0585 23.0456 53.2086 23.2718 53.3725 23.4879L53.9622 25.4304L55.0185 26.9238L54.6069 25.1327C54.5911 25.006 54.5682 24.8803 54.5385 24.7561C54.3856 24.1955 54.2591 23.6561 54.2591 23.6561L54.5239 23.8909L54.2591 21.3781L55.2656 25.3037C55.9249 25.7474 56.6399 26.1037 57.3926 26.3633L57.784 24.5693L57.8601 24.7573L58.0566 23.665C57.1579 23.2922 56.2125 22.6845 55.7528 21.8335Z" fill="white"/>
</g>
<defs>
<filter id="filter0_d_863_895" x="0.34375" y="0" width="117.492" height="38" filterUnits="userSpaceOnUse" color-interpolation-filters="sRGB">
<feFlood flood-opacity="0" result="BackgroundImageFix"/>
<feColorMatrix in="SourceAlpha" type="matrix" values="0 0 0 0 0 0 0 0 0 0 0 0 0 0 0 0 0 0 127 0" result="hardAlpha"/>
<feOffset dy="4"/>
<feGaussianBlur stdDeviation="2"/>
<feComposite in2="hardAlpha" operator="out"/>
<feColorMatrix type="matrix" values="0 0 0 0 0 0 0 0 0 0 0 0 0 0 0 0 0 0 0.25 0"/>
<feBlend mode="normal" in2="BackgroundImageFix" result="effect1_dropShadow_863_895"/>
<feBlend mode="normal" in="SourceGraphic" in2="effect1_dropShadow_863_895" result="shape"/>
</filter>
</defs>
</svg>
